# xmcd
#
# Track frame offsets:
#	150
#	16958
#	28177
#	49084
#	64184
#	81382
#	98201
#	109486
#	123746
#	141785
#	156526
#
# Disc length: 2378 seconds
#
# Revision: 0
# Processed by: cddbd v1.5.2PL0 Copyright (c) Steve Scherf et al.
# Submitted via: dBpowerAMP V4.0
#
DISCID=a109480b
DTITLE=Seth Walker - Seth Walker
DYEAR=2006
DGENRE=Blues
TTITLE0=Change My Way
TTITLE1=Kick It Around
TTITLE2=Steady
TTITLE3=Miss Ann
TTITLE4=By the Water
TTITLE5=2' Left to the Ceiling
TTITLE6=I Know Its a Sin
TTITLE7=Gone Before I Knew It
TTITLE8=Sun Down
TTITLE9=So Far Gone
TTITLE10=Picture in a Frame
EXTD=
EXTT0=
EXTT1=
EXTT2=
EXTT3=
EXTT4=
EXTT5=
EXTT6=
EXTT7=
EXTT8=
EXTT9=
EXTT10=
PLAYORDER=
